<svg width="98" height="98" viewBox="0 0 98 98" fill="none" xmlns="http://www.w3.org/2000/svg">
<circle cx="49" cy="49" r="49" fill="#FFBB00"/>
<path d="M48.6904 72.0137L46.5166 73.2697V49.6584L67.0303 37.8113V46.7598C67.0461 48.0765 69.0137 48.0701 69.0303 46.7597C68.9962 46.7201 69.0637 35.9806 69.0229 35.9442C69.0038 35.6089 68.8232 35.3029 68.5303 35.1338L46.0195 22.1338C45.7109 21.9561 45.3281 21.9561 45.0195 22.1338L22.5 35.1338C22.1904 35.3125 22 35.6426 22 36V62C22 62.3574 22.1904 62.6875 22.5 62.8662L45.0195 75.8662C45.3369 76.0327 45.7022 76.0384 46.0195 75.8662L49.6904 73.7461C50.8236 73.0775 49.8218 71.3686 48.6904 72.0137ZM31.8984 42.3658L35.2578 44.3058V49.9717L31.8984 48.0322V42.3658ZM32.8331 40.596L53.4113 28.7125L56.7692 30.6516L36.1917 42.5356L32.8331 40.596ZM58.7691 31.8066L66.0989 36.0393L45.5215 47.9238L38.1912 43.6904L58.7691 31.8066ZM45.5195 24.1553L51.4113 27.5576L30.8335 39.4412L24.9374 36.036L45.5195 24.1553ZM24 37.8045L29.8984 41.2109V48.6094C29.8984 48.9668 30.0889 49.2969 30.3984 49.4756L35.7578 52.5703C36.3919 52.9624 37.2816 52.4506 37.2578 51.7041L37.2578 45.4609L44.5166 49.6528V73.2667L24 61.4229V37.8045Z" fill="#FFFEFB"/>
<path d="M43.0879 66.5176L36.1299 62.5C34.9983 61.8507 33.9974 63.5729 35.1299 64.2325L42.0879 68.25C43.2147 68.8979 44.2228 67.1794 43.0879 66.5176Z" fill="#FFFEFB"/>
<path d="M35.1298 60.2324L42.0878 64.25C43.2147 64.8979 44.2227 63.1794 43.0878 62.5176L36.1298 58.5C34.9978 57.8526 33.9974 59.5725 35.1298 60.2324Z" fill="#FFFEFB"/>
<path d="M75.9581 74.7129L74.3419 69.3281C79.2509 60.9221 72.7307 49.8319 62.9999 50.0001C55.8321 50 50.0001 55.832 50.0001 63C49.8624 73.3632 62.0921 79.726 70.4708 73.6279L74.5147 75.874C75.2587 76.3227 76.2376 75.5379 75.9581 74.7129ZM72.3018 69.4873L73.335 72.9316L70.877 71.5664C70.5274 71.3701 70.0909 71.4053 69.7745 71.6533C67.8165 73.1885 65.4737 74 63.0001 74C48.41 73.3975 48.4086 52.603 63.0001 52C69.0655 52 74.0001 56.9346 74.0001 63C74.0001 64.9941 73.4483 66.959 72.4044 68.6816C72.2579 68.9238 72.2208 69.2168 72.3018 69.4873Z" fill="#FFFEFB"/>
<path d="M64.8946 54H61.1055C59.957 53.9747 58.9744 55.0586 59.1153 56.1993C59.1153 56.1992 59.9151 64.1983 59.9151 64.1983C60.0176 65.2256 60.8731 66 61.9053 66H64.0948C65.127 66 65.9825 65.2256 66.085 64.1992L66.8848 56.2002C67.0252 55.0591 66.0441 53.9744 64.8946 54ZM64.0948 64H61.9053L61.1055 56H64.8946L64.0948 64Z" fill="#FFFEFB"/>
<path d="M64 67H62C60.8975 67 60 67.8975 60 69V71C60 72.1025 60.8975 73 62 73H64C65.1025 73 66 72.1025 66 71V69C66 67.8975 65.1025 67 64 67ZM62 71V69H64L64.002 71H62Z" fill="#FFFEFB"/>
</svg>
