<svg width="98" height="98" viewBox="0 0 98 98" fill="none" xmlns="http://www.w3.org/2000/svg">
<circle cx="49" cy="49" r="49" fill="#FFBB00"/>
<path d="M70.2068 67.2254L70.2068 54.4524C73.6699 53.4673 75.5853 51.0196 76.2585 49.9867L79.1331 49.9867C79.3631 49.9863 79.5836 49.8959 79.7462 49.7353C79.9087 49.5747 80 49.357 80 49.13L80 32.1749C79.9996 31.9482 79.9081 31.7309 79.7456 31.5706C79.5832 31.4104 79.3629 31.3201 79.1331 31.3197L70.8634 31.3197L55.309 26.3213C54.3823 26.0219 53.3997 25.9301 52.4326 26.0528C51.4656 26.1754 50.5384 26.5093 49.7187 27.0302L40.0132 33.1734C39.9122 33.2318 39.8241 33.3097 39.7544 33.4024C39.6846 33.4952 39.6346 33.6009 39.6073 33.7133C39.58 33.8256 39.5761 33.9422 39.5956 34.0561C39.6152 34.17 39.6579 34.2788 39.7212 34.3759C39.7845 34.4731 39.8671 34.5567 39.9639 34.6215C40.0608 34.6864 40.1699 34.7313 40.2848 34.7536C40.3997 34.7758 40.518 34.7748 40.6325 34.7508C40.747 34.7268 40.8554 34.6802 40.9512 34.6137L50.6567 28.4705C51.2601 28.087 51.9426 27.8412 52.6546 27.7511C53.3665 27.661 54.0899 27.7288 54.7719 27.9496L70.4564 32.9899C70.5435 33.0173 70.6343 33.0314 70.7257 33.0317L78.2662 33.0317L78.2662 48.2748L75.7638 48.2748C75.6047 48.2747 75.4487 48.3178 75.3128 48.3994C75.177 48.481 75.0666 48.598 74.9937 48.7375C73.9067 50.5528 72.2148 51.9396 70.2068 52.6613L70.2068 48.5121C71.7379 47.9151 73.4384 46.8375 74.4854 44.8614C74.5509 44.7396 74.5852 44.6038 74.5852 44.4659C74.5851 44.2744 74.5201 44.0885 74.4004 43.9378C74.2807 43.7871 74.1133 43.6803 73.9249 43.6345C73.7364 43.5886 73.5379 43.6063 73.3609 43.6848C73.1838 43.7633 73.0386 43.8979 72.9482 44.0674C71.1962 47.3718 66.8466 47.5166 66.8224 47.5181C60.9991 47.5181 59.3197 43.5032 59.2577 43.339C59.1949 43.1772 59.0837 43.038 58.9388 42.94C58.794 42.8419 58.6224 42.7895 58.4468 42.7898L49.8518 42.7898C49.2026 42.774 48.5853 42.5085 48.1318 42.0499C47.6782 41.5913 47.4244 40.976 47.4244 40.3353C47.4244 39.6946 47.6782 39.0793 48.1318 38.6208C48.5853 38.1622 49.2026 37.8967 49.8518 37.8809L60.1065 37.8809C60.2234 37.8857 60.3402 37.8671 60.4498 37.8263C60.5593 37.7854 60.6593 37.7232 60.7438 37.6432C60.8283 37.5632 60.8956 37.4672 60.9415 37.361C60.9874 37.2547 61.0111 37.1404 61.0111 37.0249C61.0111 36.9094 60.9874 36.7951 60.9415 36.6888C60.8956 36.5826 60.8283 36.4866 60.7438 36.4066C60.6593 36.3267 60.5593 36.2644 60.4498 36.2235C60.3402 36.1827 60.2234 36.1641 60.1065 36.1689L49.8518 36.1689C48.7455 36.1896 47.6917 36.6376 46.9167 37.4167C46.1418 38.1958 45.7076 39.2438 45.7076 40.3353C45.7076 41.4269 46.1418 42.4748 46.9167 43.2539C47.6917 44.033 48.7455 44.4811 49.8518 44.5017L57.8976 44.5017C58.6419 45.8584 61.0747 49.2315 66.8405 49.2315C67.3892 49.2081 67.9349 49.1382 68.4715 49.0226L68.4715 61.9046L18.7353 61.9046L18.7353 56.2703L65.4532 56.2703C65.677 56.261 65.8886 56.1668 66.0437 56.0073C66.1988 55.8478 66.2853 55.6353 66.2853 55.4143C66.2853 55.1933 66.1988 54.9808 66.0437 54.8213C65.8886 54.6618 65.677 54.5676 65.4532 54.5583L18.7353 54.5583L18.7353 39.942C18.7361 39.3952 18.9567 38.871 19.3486 38.4844C19.7406 38.0977 20.2719 37.8802 20.8262 37.8794L43.8107 37.8794C44.0345 37.8702 44.2461 37.7759 44.4012 37.6164C44.5563 37.4569 44.6429 37.2444 44.6429 37.0234C44.6429 36.8024 44.5563 36.5899 44.4012 36.4304C44.2461 36.2709 44.0345 36.1767 43.8107 36.1674L20.8262 36.1674C19.8117 36.1682 18.8389 36.5662 18.1216 37.2739C17.4042 37.9816 17.0008 38.9412 17 39.942L17 67.2254C17.0008 68.2262 17.4042 69.1859 18.1216 69.8936C18.8389 70.6013 19.8117 70.9992 20.8262 71L66.3806 71C67.395 70.9988 68.3675 70.6008 69.0848 69.8931C69.8021 69.1855 70.2056 68.2261 70.2068 67.2254ZM20.8262 69.2881C20.2719 69.2873 19.7406 69.0697 19.3486 68.6831C18.9567 68.2964 18.7361 67.7722 18.7353 67.2254L18.7353 63.6165L68.4715 63.6165L68.4715 67.2254C68.4707 67.7722 68.2501 68.2964 67.8582 68.6831C67.4662 69.0697 66.9349 69.2873 66.3806 69.2881L20.8262 69.2881Z" fill="#FFFEFB"/>
</svg>
