<svg width="18" height="18" viewBox="0 0 18 18" fill="none" xmlns="http://www.w3.org/2000/svg">
<path d="M15.3 2.2H13.5V1.35C13.5 1.12457 13.4052 0.908365 13.2364 0.748959C13.0676 0.589553 12.8387 0.5 12.6 0.5C12.3613 0.5 12.1324 0.589553 11.9636 0.748959C11.7948 0.908365 11.7 1.12457 11.7 1.35V2.2H6.3V1.35C6.3 1.12457 6.20518 0.908365 6.0364 0.748959C5.86761 0.589553 5.63869 0.5 5.4 0.5C5.1613 0.5 4.93239 0.589553 4.7636 0.748959C4.59482 0.908365 4.5 1.12457 4.5 1.35V2.2H2.7C1.98392 2.2 1.29716 2.46866 0.790812 2.94688C0.284464 3.4251 0 4.0737 0 4.75V14.95C0 15.6263 0.284464 16.2749 0.790812 16.7531C1.29716 17.2313 1.98392 17.5 2.7 17.5H15.3C16.0161 17.5 16.7028 17.2313 17.2092 16.7531C17.7155 16.2749 18 15.6263 18 14.95V4.75C18 4.0737 17.7155 3.4251 17.2092 2.94688C16.7028 2.46866 16.0161 2.2 15.3 2.2ZM16.2 14.95C16.2 15.1754 16.1052 15.3916 15.9364 15.551C15.7676 15.7104 15.5387 15.8 15.3 15.8H2.7C2.46131 15.8 2.23239 15.7104 2.0636 15.551C1.89482 15.3916 1.8 15.1754 1.8 14.95V9H16.2V14.95ZM16.2 7.3H1.8V4.75C1.8 4.52457 1.89482 4.30837 2.0636 4.14896C2.23239 3.98955 2.46131 3.9 2.7 3.9H4.5V4.75C4.5 4.97543 4.59482 5.19163 4.7636 5.35104C4.93239 5.51045 5.1613 5.6 5.4 5.6C5.63869 5.6 5.86761 5.51045 6.0364 5.35104C6.20518 5.19163 6.3 4.97543 6.3 4.75V3.9H11.7V4.75C11.7 4.97543 11.7948 5.19163 11.9636 5.35104C12.1324 5.51045 12.3613 5.6 12.6 5.6C12.8387 5.6 13.0676 5.51045 13.2364 5.35104C13.4052 5.19163 13.5 4.97543 13.5 4.75V3.9H15.3C15.5387 3.9 15.7676 3.98955 15.9364 4.14896C16.1052 4.30837 16.2 4.52457 16.2 4.75V7.3Z" fill="#FFBB00"/>
</svg>
