<svg width="98" height="98" viewBox="0 0 98 98" fill="none" xmlns="http://www.w3.org/2000/svg">
<circle cx="49" cy="49" r="49" fill="#FFBB00"/>
<path d="M18.375 43.5312V69.7812C18.375 72.7978 20.8272 75.25 23.8438 75.25H74.1562C77.1728 75.25 79.625 72.7978 79.625 69.7812V39.1562C79.625 36.1419 77.1728 33.6875 74.1562 33.6875H54.4688V28.2188C54.4688 25.2044 52.0166 22.75 49 22.75C45.9834 22.75 43.5312 25.2044 43.5312 28.2188V33.6875H23.8438C22.3939 33.6892 21.0039 34.266 19.9787 35.2912C18.9535 36.3164 18.3767 37.7064 18.375 39.1562V43.5312ZM77.4375 69.7812C77.4375 71.5903 75.9653 73.0625 74.1562 73.0625H23.8438C22.0347 73.0625 20.5625 71.5903 20.5625 69.7812V44.625H77.4375V69.7812ZM45.7188 28.2188C45.7188 26.4097 47.1909 24.9375 49 24.9375C50.8091 24.9375 52.2812 26.4097 52.2812 28.2188V38.0625H45.7188V28.2188ZM20.5625 39.1562C20.5625 37.3472 22.0347 35.875 23.8438 35.875H43.5312V38.0625H39.1562C38.8662 38.0625 38.588 38.1777 38.3829 38.3829C38.1777 38.588 38.0625 38.8662 38.0625 39.1562C38.0625 39.4463 38.1777 39.7245 38.3829 39.9296C38.588 40.1348 38.8662 40.25 39.1562 40.25H58.8438C59.1338 40.25 59.412 40.1348 59.6171 39.9296C59.8223 39.7245 59.9375 39.4463 59.9375 39.1562C59.9375 38.8662 59.8223 38.588 59.6171 38.3829C59.412 38.1777 59.1338 38.0625 58.8438 38.0625H54.4688V35.875H74.1562C75.9653 35.875 77.4375 37.3472 77.4375 39.1562V42.4375H20.5625V39.1562Z" fill="#FFFEFB"/>
<path d="M50.0861 28.3476C50.1573 27.7477 49.7287 27.2038 49.1289 27.1326C48.529 27.0614 47.985 27.49 47.9139 28.0899C47.8427 28.6897 48.2713 29.2337 48.8712 29.3049C49.471 29.376 50.015 28.9474 50.0861 28.3476Z" fill="#FFFEFB"/>
<path d="M23.8438 66.5H39.1562C39.4463 66.5 39.7245 66.3848 39.9296 66.1796C40.1348 65.9745 40.25 65.6963 40.25 65.4062V62.7156C40.25 61.145 39.2481 59.7537 37.8153 59.2791L35.1466 58.2203V56.4025C35.6322 55.6937 35.9188 54.8362 35.9188 53.9131L35.9078 53.0841L36.3825 50.4416C36.4443 50.1044 36.438 49.7582 36.364 49.4235C36.29 49.0888 36.1497 48.7722 35.9516 48.4925C35.7553 48.2125 35.5049 47.9745 35.2153 47.7927C34.9256 47.6109 34.6025 47.4888 34.265 47.4337L30.7562 46.8475C30.1652 46.7481 29.5579 46.8606 29.0417 47.1651C28.5254 47.4697 28.1333 47.9467 27.9344 48.5122C27.4547 48.7267 27.0633 49.0996 26.826 49.5683C26.5886 50.0371 26.5196 50.5733 26.6306 51.0869L27.0463 53.025L27.0834 53.9087C27.0834 54.8319 27.37 55.6894 27.8556 56.4003L27.8534 56.4091V58.2181L25.2437 59.255C24.5174 59.497 23.8857 59.9615 23.4381 60.5827C22.9905 61.2038 22.7498 61.95 22.75 62.7156V65.4062C22.75 65.6963 22.8652 65.9745 23.0704 66.1796C23.2755 66.3848 23.5537 66.5 23.8438 66.5ZM29.9709 49.3653C29.9709 49.2187 30.0519 49.1269 30.1 49.0875C30.1401 49.0528 30.1873 49.0274 30.2384 49.013C30.2894 48.9986 30.343 48.9957 30.3953 49.0044L33.9063 49.5906C33.9576 49.599 34.0067 49.6177 34.0507 49.6455C34.0947 49.6733 34.1326 49.7097 34.1622 49.7525C34.193 49.7953 34.2147 49.844 34.2259 49.8956C34.2372 49.9471 34.2379 50.0004 34.2278 50.0522L33.7356 52.8719L33.7313 53.2284V53.9131C33.7313 55.1447 32.7316 56.1466 31.5 56.1466C30.2684 56.1466 29.2687 55.1447 29.2687 53.9131L29.26 53.1125L28.875 50.5006C29.1694 50.491 29.4485 50.367 29.6531 50.1551C29.8577 49.9431 29.9717 49.6599 29.9709 49.3653ZM24.9375 62.7156C24.9415 62.3999 25.0458 62.0937 25.2353 61.8412C25.4249 61.5888 25.6898 61.4031 25.9919 61.3112L29.3497 59.9791C29.5532 59.898 29.7277 59.7577 29.8505 59.5764C29.9734 59.395 30.039 59.1809 30.0387 58.9619V58.065C30.4981 58.2269 30.9837 58.3319 31.4978 58.3319C32.0119 58.3319 32.4975 58.2269 32.9569 58.065V58.9619C32.9567 59.1809 33.0222 59.395 33.1451 59.5764C33.2679 59.7577 33.4424 59.898 33.6459 59.9791L37.0628 61.3331C37.3538 61.4289 37.6071 61.6142 37.7866 61.8624C37.9661 62.1107 38.0627 62.4093 38.0625 62.7156V64.3125H24.9375V62.7156ZM43.5312 53.375H74.1562C74.4463 53.375 74.7245 53.2598 74.9296 53.0546C75.1348 52.8495 75.25 52.5713 75.25 52.2812V47.9062C75.25 47.6162 75.1348 47.338 74.9296 47.1328C74.7245 46.9277 74.4463 46.8125 74.1562 46.8125H43.5312C43.2412 46.8125 42.963 46.9277 42.7579 47.1328C42.5527 47.338 42.4375 47.6162 42.4375 47.9062V52.2812C42.4375 52.5713 42.5527 52.8495 42.7579 53.0546C42.963 53.2598 43.2412 53.375 43.5312 53.375ZM44.625 49H73.0625V51.1875H44.625V49ZM43.5312 57.75H45.7188C46.0088 57.75 46.287 57.6348 46.4921 57.4296C46.6973 57.2245 46.8125 56.9463 46.8125 56.6562C46.8125 56.3662 46.6973 56.088 46.4921 55.8828C46.287 55.6777 46.0088 55.5625 45.7188 55.5625H43.5312C43.2412 55.5625 42.963 55.6777 42.7579 55.8828C42.5527 56.088 42.4375 56.3662 42.4375 56.6562C42.4375 56.9463 42.5527 57.2245 42.7579 57.4296C42.963 57.6348 43.2412 57.75 43.5312 57.75ZM43.5312 62.125H45.7188C46.0088 62.125 46.287 62.0098 46.4921 61.8046C46.6973 61.5995 46.8125 61.3213 46.8125 61.0312C46.8125 60.7412 46.6973 60.463 46.4921 60.2578C46.287 60.0527 46.0088 59.9375 45.7188 59.9375H43.5312C43.2412 59.9375 42.963 60.0527 42.7579 60.2578C42.5527 60.463 42.4375 60.7412 42.4375 61.0312C42.4375 61.3213 42.5527 61.5995 42.7579 61.8046C42.963 62.0098 43.2412 62.125 43.5312 62.125ZM43.5312 66.5H45.7188C46.0088 66.5 46.287 66.3848 46.4921 66.1796C46.6973 65.9745 46.8125 65.6963 46.8125 65.4062C46.8125 65.1162 46.6973 64.838 46.4921 64.6328C46.287 64.4277 46.0088 64.3125 45.7188 64.3125H43.5312C43.2412 64.3125 42.963 64.4277 42.7579 64.6328C42.5527 64.838 42.4375 65.1162 42.4375 65.4062C42.4375 65.6963 42.5527 65.9745 42.7579 66.1796C42.963 66.3848 43.2412 66.5 43.5312 66.5ZM74.1562 55.5625H50.0938C49.8037 55.5625 49.5255 55.6777 49.3204 55.8828C49.1152 56.088 49 56.3662 49 56.6562C49 56.9463 49.1152 57.2245 49.3204 57.4296C49.5255 57.6348 49.8037 57.75 50.0938 57.75H74.1562C74.4463 57.75 74.7245 57.6348 74.9296 57.4296C75.1348 57.2245 75.25 56.9463 75.25 56.6562C75.25 56.3662 75.1348 56.088 74.9296 55.8828C74.7245 55.6777 74.4463 55.5625 74.1562 55.5625ZM74.1562 59.9375H50.0938C49.8037 59.9375 49.5255 60.0527 49.3204 60.2578C49.1152 60.463 49 60.7412 49 61.0312C49 61.3213 49.1152 61.5995 49.3204 61.8046C49.5255 62.0098 49.8037 62.125 50.0938 62.125H74.1562C74.4463 62.125 74.7245 62.0098 74.9296 61.8046C75.1348 61.5995 75.25 61.3213 75.25 61.0312C75.25 60.7412 75.1348 60.463 74.9296 60.2578C74.7245 60.0527 74.4463 59.9375 74.1562 59.9375ZM74.1562 64.3125H50.0938C49.8037 64.3125 49.5255 64.4277 49.3204 64.6328C49.1152 64.838 49 65.1162 49 65.4062C49 65.6963 49.1152 65.9745 49.3204 66.1796C49.5255 66.3848 49.8037 66.5 50.0938 66.5H74.1562C74.4463 66.5 74.7245 66.3848 74.9296 66.1796C75.1348 65.9745 75.25 65.6963 75.25 65.4062C75.25 65.1162 75.1348 64.838 74.9296 64.6328C74.7245 64.4277 74.4463 64.3125 74.1562 64.3125ZM23.8438 70.875H74.1562C74.4463 70.875 74.7245 70.7598 74.9296 70.5546C75.1348 70.3495 75.25 70.0713 75.25 69.7812C75.25 69.4912 75.1348 69.213 74.9296 69.0078C74.7245 68.8027 74.4463 68.6875 74.1562 68.6875H23.8438C23.5537 68.6875 23.2755 68.8027 23.0704 69.0078C22.8652 69.213 22.75 69.4912 22.75 69.7812C22.75 70.0713 22.8652 70.3495 23.0704 70.5546C23.2755 70.7598 23.5537 70.875 23.8438 70.875Z" fill="#FFFEFB"/>
</svg>
